<?xml version="1.0" standalone="no"?>
<!DOCTYPE svg PUBLIC "-//W3C//DTD SVG 20010904//EN"
 "http://www.w3.org/TR/2001/REC-SVG-20010904/DTD/svg10.dtd">
<svg version="1.0" xmlns="http://www.w3.org/2000/svg"
 width="521.000000pt" height="521.000000pt" viewBox="0 0 521.000000 521.000000"
 preserveAspectRatio="xMidYMid meet">
<metadata>
Created by potrace 1.11, written by Peter Selinger 2001-2013
</metadata>
<g transform="translate(0.000000,521.000000) scale(0.100000,-0.100000)"
fill="#000000" stroke="none">
<path d="M990 2605 l0 -2035 375 0 375 0 0 1107 c0 610 0 1155 0 1213 l0 105
51 -80 c28 -44 77 -120 109 -170 32 -49 79 -121 103 -160 24 -38 80 -125 123
-192 44 -67 171 -265 284 -440 112 -175 242 -376 288 -448 47 -71 109 -168
139 -215 30 -47 87 -135 126 -196 40 -60 96 -148 126 -195 30 -46 90 -139 134
-206 l80 -123 459 0 460 0 -16 22 c-13 20 -35 54 -89 143 -7 11 -14 22 -17 25
-3 3 -12 17 -20 31 -15 26 -404 640 -517 817 -35 53 -66 104 -70 112 -4 8 -32
53 -62 100 -31 47 -60 94 -66 103 -14 24 -272 432 -311 492 -18 28 -111 176
-208 329 l-176 280 28 30 c16 17 58 63 94 101 36 39 80 86 98 105 36 39 229
245 275 295 76 80 275 293 301 321 182 195 235 253 269 289 55 58 256 273 295
315 17 19 59 63 92 98 l60 62 -464 0 -465 0 -79 -87 c-43 -47 -88 -96 -99
-108 -91 -97 -326 -351 -355 -385 -13 -14 -102 -112 -234 -254 -16 -17 -67
-73 -115 -125 -47 -52 -97 -106 -111 -121 -54 -57 -226 -244 -241 -261 -14
-17 -136 -149 -236 -257 l-43 -46 0 175 c-1 96 -1 465 0 822 l0 647 -375 0
-375 0 0 -2035z"/>
</g>
</svg>
